<svg width="170" height="170" viewBox="0 0 170 170" fill="none" xmlns="http://www.w3.org/2000/svg">
<rect width="170" height="170" fill="#3B47AE"/>
<g filter="url(#filter0_d_278_134)">
<path d="M81.9804 99.576C78.2684 99.576 74.9084 98.904 71.9004 97.56C68.8924 96.216 66.4924 94.04 64.7004 91.032C62.9084 88.024 62.0124 84.024 62.0124 79.032V49.368C62.0124 44.376 62.9084 40.376 64.7004 37.368C66.4924 34.36 68.8604 32.184 71.8044 30.84C74.8124 29.496 78.1724 28.824 81.8844 28.824C85.9804 28.824 89.5324 29.56 92.5404 31.032C95.5484 32.44 97.8844 34.392 99.5484 36.888C101.212 39.384 102.044 42.264 102.044 45.528C102.044 46.68 101.756 47.512 101.18 48.024C100.604 48.472 99.8364 48.696 98.8764 48.696C97.9804 48.696 97.2124 48.504 96.5724 48.12C95.9964 47.736 95.6764 47.128 95.6124 46.296C95.3564 43.864 94.6844 41.784 93.5964 40.056C92.5084 38.328 91.0044 37.016 89.0844 36.12C87.1644 35.16 84.7964 34.68 81.9804 34.68C77.6924 34.68 74.3644 35.896 71.9964 38.328C69.6284 40.696 68.4444 44.376 68.4444 49.368V79.032C68.4444 84.024 69.6284 87.736 71.9964 90.168C74.3644 92.536 77.6924 93.72 81.9804 93.72C86.2684 93.72 89.5964 92.536 91.9644 90.168C94.3964 87.736 95.6124 84.024 95.6124 79.032V67.608H82.8444C82.0764 67.608 81.4684 67.352 81.0204 66.84C80.6364 66.264 80.4444 65.624 80.4444 64.92C80.4444 64.216 80.6364 63.576 81.0204 63C81.4684 62.424 82.0764 62.136 82.8444 62.136H99.6444C100.412 62.136 100.988 62.392 101.372 62.904C101.82 63.416 102.044 64.024 102.044 64.728V79.032C102.044 84.024 101.148 88.024 99.3564 91.032C97.5644 94.04 95.1644 96.216 92.1564 97.56C89.1484 98.904 85.7564 99.576 81.9804 99.576Z" fill="#0D162D"/>
</g>
<g filter="url(#filter1_d_278_134)">
<path d="M94.4173 148.672C90.3213 148.672 86.8013 148.064 83.8573 146.848C80.9133 145.568 78.6413 144.128 77.0413 142.528C75.5053 140.864 74.7373 139.456 74.7373 138.304C74.7373 137.792 74.8653 137.248 75.1213 136.672C75.4413 136.096 75.8253 135.648 76.2733 135.328C76.7213 134.944 77.1693 134.752 77.6173 134.752C78.2573 134.752 78.8973 135.168 79.5373 136C80.2413 136.768 81.1373 137.696 82.2253 138.784C83.3773 139.808 84.8813 140.736 86.7373 141.568C88.5933 142.336 91.0253 142.72 94.0333 142.72C97.0413 142.72 99.6013 142.24 101.713 141.28C103.825 140.256 105.457 138.784 106.609 136.864C107.761 134.88 108.337 132.416 108.337 129.472C108.337 126.4 107.761 123.936 106.609 122.08C105.457 120.224 103.921 118.688 102.001 117.472C100.145 116.256 98.0973 115.232 95.8573 114.4C93.6173 113.568 91.3453 112.704 89.0413 111.808C86.8013 110.912 84.7213 109.824 82.8013 108.544C80.8813 107.2 79.3453 105.472 78.1933 103.36C77.5262 102.1 77.0522 100.647 76.7714 99C76.5673 97.8034 76.4653 96.5048 76.4653 95.1041C76.4653 94.0083 76.5296 92.9736 76.6583 92C76.9355 89.9031 77.5112 88.0898 78.3853 86.5601C79.6653 84.2561 81.2973 82.4641 83.2813 81.1841C85.3293 79.9041 87.5373 79.0081 89.9053 78.4961C92.2733 77.9201 94.5773 77.6321 96.8173 77.6321C98.6093 77.6321 100.433 77.7921 102.289 78.1121C104.209 78.3681 105.969 78.7521 107.569 79.2641C109.169 79.7761 110.449 80.4161 111.409 81.1841C112.433 81.8881 112.945 82.6881 112.945 83.5841C112.945 83.9681 112.817 84.4481 112.561 85.0241C112.369 85.5361 112.081 86.0161 111.697 86.4641C111.313 86.9121 110.801 87.1361 110.161 87.1361C109.585 87.1361 108.785 86.8481 107.761 86.2721C106.737 85.6321 105.329 85.0241 103.537 84.4481C101.809 83.8081 99.5373 83.4881 96.7213 83.4881C94.4173 83.4881 92.1773 83.8081 90.0013 84.4481C87.8893 85.0881 86.1613 86.2401 84.8173 87.9041C83.7777 89.1418 83.1401 90.7432 82.9047 92.7085C82.8358 93.2839 82.8013 93.8904 82.8013 94.5281C82.8013 96.4583 83.1287 98.1156 83.7836 99.5C83.9973 99.9517 84.2459 100.374 84.5293 100.768C85.7453 102.304 87.2813 103.552 89.1373 104.512C91.0573 105.472 93.1373 106.368 95.3773 107.2C97.6173 107.968 99.8573 108.864 102.097 109.888C104.401 110.848 106.481 112.096 108.337 113.632C110.257 115.104 111.793 117.056 112.945 119.488C114.097 121.92 114.673 125.056 114.673 128.896C114.673 133.44 113.809 137.184 112.081 140.128C110.353 143.008 107.953 145.152 104.881 146.56C101.873 147.968 98.3853 148.672 94.4173 148.672Z" fill="#1A2157"/>
</g>
<path d="M83.6237 95.707C83.6173 95.758 83.4919 95.7577 83.4569 95.762C83.3397 95.7767 83.2221 95.8005 83.1079 95.8309C83.0281 95.8522 82.9446 95.9136 82.8661 95.9136C82.7733 95.9136 82.6829 95.9685 82.5906 95.9817C82.5186 95.992 82.4428 96.0375 82.3703 96.0375C82.2857 96.0375 82.1628 96.0602 82.0757 96.0796C81.9658 96.104 81.8341 96.1064 81.716 96.1064C81.4383 96.1064 81.1605 96.1064 80.8827 96.1064C80.8281 96.1064 80.8021 96.0968 80.7526 96.0788C80.7033 96.0609 80.7021 95.9975 80.6616 95.984C80.6174 95.9692 80.5917 95.9193 80.5529 95.9128C80.5199 95.9073 80.5083 95.8171 80.5323 95.8034C80.5982 95.7657 80.6662 95.7678 80.7373 95.7475C80.7756 95.7366 80.7736 95.707 80.8207 95.707C80.8556 95.707 80.8882 95.6932 80.9171 95.6932C80.9681 95.6932 81.1313 95.7465 81.0128 95.7896C80.8728 95.8405 80.7353 95.8309 80.5866 95.8309C80.4426 95.8309 80.3095 95.8121 80.1665 95.8041C79.974 95.7934 79.8022 95.7483 79.6079 95.7483C79.4992 95.7483 79.4183 95.7213 79.3156 95.7039C79.2219 95.688 79.1051 95.7113 79.0171 95.6733C78.9131 95.6283 78.7822 95.6381 78.6682 95.6381C78.559 95.6381 78.4499 95.6381 78.3407 95.6381C78.2695 95.6381 78.2133 95.5968 78.1494 95.5968C78.0665 95.5968 77.9749 95.5822 77.9 95.5478C77.8342 95.5176 77.7581 95.532 77.6979 95.4927C77.6526 95.4631 77.5656 95.444 77.5143 95.4284C77.4154 95.3985 77.2858 95.3999 77.1807 95.4039C77.1226 95.4062 77.0988 95.437 77.0337 95.4208C76.9419 95.3978 76.8609 95.3326 76.769 95.3106C76.6711 95.2872 76.5661 95.2028 76.4675 95.1973C76.3999 95.1936 76.3731 95.1461 76.3022 95.1422C76.2099 95.1372 76.1372 95.0871 76.0451 95.0871C76.0015 95.0871 76.008 95.0733 75.9869 95.0366C75.9463 94.9658 75.8994 94.8971 75.8507 94.8316C75.8321 94.8065 75.8398 94.9168 75.8446 94.9387C75.8595 95.0057 75.9109 95.0628 75.9487 95.1177C75.9996 95.1918 76.0413 95.2799 76.0757 95.3626C76.1514 95.5446 76.2568 95.7581 76.3818 95.9136C76.5034 96.0649 76.6337 96.2276 76.7873 96.3467C76.9833 96.4985 77.1715 96.572 77.4102 96.6328C77.594 96.6797 77.7847 96.7311 77.952 96.8226C78.1162 96.9124 78.2861 96.9765 78.4693 97.0154C78.8363 97.0934 79.2157 97.0883 79.5865 97.1425C80.274 97.243 80.9682 97.2868 81.6632 97.2909C81.9724 97.2928 82.2781 97.2991 82.5876 97.2909C82.7986 97.2854 83.0096 97.231 83.2105 97.1807" stroke="#0D162D" stroke-width="4" stroke-linecap="round"/>
<path d="M78.4034 96.8503C78.4936 96.8603 78.3758 97.0625 78.3758 97.0982C78.3758 97.1604 78.3166 97.1395 78.2656 97.1395C78.212 97.1395 78.1388 97.1552 78.1417 97.0814C78.1438 97.027 78.3357 96.9329 78.3896 96.9329C78.4668 96.9329 78.5195 96.8821 78.5962 96.8778C78.6266 96.8762 78.6512 96.8458 78.6796 96.8373C78.7205 96.825 78.7606 96.8228 78.8028 96.8228" stroke="#0D162D" stroke-width="4" stroke-linecap="round"/>
<path d="M80.1664 97.1533C80.1569 97.234 80.0113 97.3471 79.9262 97.3316C79.9023 97.3272 79.8976 97.2813 79.8833 97.2635C79.8566 97.2301 79.8875 97.2195 79.9017 97.2053C79.9287 97.1783 79.9689 97.1077 80.008 97.099C80.1206 97.074 80.2342 97.0982 80.3524 97.0982C80.8021 97.0982 81.2565 97.1199 81.703 97.1747C81.9834 97.2092 82.2623 97.2555 82.5416 97.2972C82.6631 97.3152 82.7949 97.3206 82.9074 97.3706C82.9422 97.3861 82.9665 97.4044 82.9969 97.4288C83.0099 97.4391 83.033 97.4366 83.0421 97.4456C83.0525 97.4561 83.0515 97.4841 83.062 97.4946C83.0785 97.5111 83.166 97.4976 83.1898 97.4976C83.2366 97.4976 83.2629 97.5252 83.3068 97.5252C83.342 97.5252 83.413 97.5388 83.4377 97.5114C83.443 97.5055 83.4903 97.4855 83.4583 97.4839C83.4311 97.4824 83.3885 97.4957 83.3757 97.4701" stroke="#0D162D" stroke-width="4" stroke-linecap="round"/>
<path d="M82.774 95.8197C82.7225 95.844 82.6923 95.7943 82.6923 95.7471C82.6923 95.7285 82.7273 95.652 82.7273 95.6913C82.7273 95.706 82.732 95.7304 82.726 95.7439C82.7192 95.759 82.6933 95.7671 82.6923 95.7847C82.6901 95.8213 82.6899 95.7819 82.6929 95.7685C82.6958 95.7554 82.7343 95.7614 82.7448 95.7614C82.7985 95.7614 82.8188 95.7645 82.8602 95.7277C82.8691 95.7198 82.8888 95.7147 82.879 95.7147C82.8159 95.7147 82.7528 95.7147 82.6897 95.7147C82.4263 95.7147 82.1626 95.7264 81.8985 95.7264C81.6675 95.7264 81.4147 95.7333 81.1923 95.681C81.1296 95.6662 81.0457 95.668 80.9809 95.668C80.8627 95.668 80.7444 95.668 80.6262 95.668C80.4622 95.668 80.3071 95.6213 80.1411 95.6213C80.0404 95.6213 79.9398 95.6096 79.8383 95.6096C79.7437 95.6096 79.6586 95.5929 79.564 95.5856C79.4336 95.5756 79.3044 95.5781 79.1736 95.5746C79.0969 95.5725 79.0283 95.5472 78.9544 95.537C78.8729 95.5258 78.7885 95.5225 78.7067 95.5162C78.6529 95.5121 78.6072 95.4812 78.5524 95.4812C78.5036 95.4812 78.4437 95.4794 78.3967 95.4644C78.3099 95.4366 78.2273 95.4445 78.1386 95.4287C77.9875 95.4017 77.8387 95.3762 77.6821 95.3762C77.5239 95.3762 77.3752 95.3282 77.2191 95.3003C77.1775 95.2929 77.1534 95.2666 77.1192 95.2569C77.08 95.2457 77.0377 95.2456 77.0018 95.2244C76.948 95.1928 76.8602 95.1852 76.8021 95.1674C76.7541 95.1526 76.695 95.1504 76.6458 95.1434C76.5909 95.1355 76.5207 95.1168 76.4681 95.0986C76.4236 95.0833 76.3888 95.0643 76.3417 95.0604C76.289 95.056 76.2579 95.0278 76.21 95.0169C76.0843 94.9883 75.9632 94.9486 75.8365 94.9158C75.7851 94.9024 75.7457 94.8751 75.6913 94.8743C75.6368 94.8734 75.5859 94.8738 75.5324 94.8619C75.4891 94.8523 75.447 94.8399 75.4033 94.8302C75.3864 94.8264 75.3207 94.8276 75.3268 94.8276" stroke="#0D162D" stroke-width="4" stroke-linecap="round"/>
<path d="M77.4934 97.0416C77.4934 97.1258 77.5592 97.0862 77.6056 97.0753C77.6341 97.0686 77.6742 96.9096 77.6842 96.8819C77.6998 96.839 77.7036 96.7926 77.7179 96.7498" stroke="#0D162D" stroke-width="4" stroke-linecap="round"/>
<path d="M82.8312 97.3803C82.8277 97.4675 82.7312 97.5271 82.6583 97.4664C82.592 97.4111 82.4814 97.4258 82.3993 97.4075C82.3552 97.3977 82.3298 97.367 82.275 97.367C82.2013 97.367 82.1307 97.3538 82.0572 97.3538C81.9972 97.3538 81.9799 97.3273 81.9233 97.3273C81.8531 97.3273 81.7843 97.3141 81.7128 97.3141C81.6503 97.3141 81.5989 97.2792 81.5406 97.2743C81.4643 97.268 81.388 97.2529 81.3111 97.2478C81.2361 97.243 81.1689 97.2081 81.0889 97.2081C81.0309 97.2081 80.9617 97.2178 80.9049 97.2052C80.7706 97.1753 80.6345 97.2081 80.5002 97.2081C80.4106 97.2081 80.3208 97.2265 80.2354 97.2478" stroke="#0D162D" stroke-width="4" stroke-linecap="round"/>
<path d="M82.0102 97.155C81.867 97.155 81.7691 97.233 81.6931 97.3471C81.6791 97.368 81.672 97.4024 81.6666 97.4265C81.6565 97.4722 81.5416 97.4399 81.5113 97.4332C81.4098 97.4106 81.3212 97.4332 81.2288 97.4332C81.1443 97.4332 81.0667 97.4067 80.983 97.4067C80.882 97.4067 80.7809 97.4067 80.6799 97.4067C80.6007 97.4067 80.5314 97.3669 80.4533 97.3669C80.3902 97.3669 80.3245 97.3537 80.2561 97.3537C80.1181 97.3537 79.979 97.359 79.8411 97.3537C79.8055 97.3523 79.7318 97.3488 79.6998 97.3346C79.6472 97.3112 79.5967 97.3161 79.5409 97.3037C79.459 97.2855 79.3716 97.3092 79.2893 97.2904C79.2386 97.2788 79.1988 97.2954 79.1524 97.2669C79.1245 97.2497 79.0679 97.2619 79.0361 97.261C78.966 97.259 78.8904 97.2513 78.8183 97.2477C78.7904 97.2463 78.6232 97.2456 78.6094 97.2286C78.5758 97.1873 78.4483 97.2082 78.3945 97.1948" stroke="#0D162D" stroke-width="4" stroke-linecap="round"/>
<path d="M77.0398 97.895C77.0119 97.9062 77.0082 97.9574 76.9997 97.9814C76.9877 98.0149 76.9753 98.0521 76.9595 98.0836C76.9494 98.1038 76.9392 98.1555 76.9198 98.1666C76.911 98.1716 76.8965 98.2099 76.893 98.22C76.8808 98.2552 76.8664 98.2876 76.8577 98.3243C76.8507 98.3536 76.8605 98.3853 76.8498 98.4134C76.8406 98.4377 76.8546 98.4612 76.8546 98.484C76.8546 98.5023 76.8493 98.5463 76.8608 98.506C76.8726 98.4648 76.8567 98.4886 76.8697 98.5032C76.8815 98.5165 76.9057 98.5022 76.9222 98.4995C76.9373 98.4969 76.9691 98.4843 76.9842 98.4964C77.0018 98.5104 77.0248 98.5088 77.035 98.5279C77.0391 98.5358 77.0514 98.5355 77.0521 98.5444C77.0535 98.5613 77.0532 98.5615 77.0706 98.5615C77.1069 98.5615 77.1376 98.5849 77.1742 98.5862C77.2034 98.5872 77.223 98.6047 77.2523 98.6047C77.2825 98.6047 77.3127 98.6047 77.3428 98.6047C77.4304 98.6047 77.5183 98.6109 77.6048 98.6109C77.6194 98.6109 77.638 98.6161 77.6504 98.6236C77.6729 98.6371 77.6918 98.6316 77.7159 98.637C77.7499 98.6445 77.7763 98.6603 77.8115 98.6603C77.8256 98.6603 77.838 98.6664 77.8516 98.6664C77.8686 98.6664 77.8752 98.6776 77.89 98.6788C77.9236 98.6814 77.959 98.6817 77.9929 98.6853C78.0422 98.6905 78.0882 98.7082 78.1383 98.7096C78.1989 98.7113 78.2581 98.7266 78.3172 98.7357C78.4802 98.7608 78.6546 98.759 78.8205 98.759C78.903 98.759 78.9786 98.7837 79.0612 98.7837C79.1247 98.7837 79.1864 98.8084 79.2491 98.8084" stroke="#0D162D" stroke-linecap="round"/>
<path d="M79.0269 98.7651C79.1132 98.7702 79.2004 98.7651 79.2885 98.7651C79.3299 98.7651 79.3712 98.773 79.4126 98.7778C79.4395 98.781 79.4599 98.799 79.4863 98.8035C79.5099 98.8076 79.5291 98.8233 79.5514 98.8265C79.5663 98.8286 79.5815 98.8313 79.596 98.833C79.6082 98.8345 79.6189 98.8484 79.6344 98.8512C79.6719 98.858 79.7115 98.8515 79.7496 98.8584C79.8542 98.8774 79.9621 98.8824 80.0695 98.8824C80.1385 98.8824 80.2009 98.8947 80.2707 98.8947C80.3495 98.8947 80.4382 98.8918 80.5162 98.9057C80.5394 98.9098 80.5647 98.9071 80.5882 98.9071C80.6171 98.9071 80.6417 98.918 80.6684 98.9194C80.7056 98.9214 80.7436 98.9194 80.7809 98.9194C80.8131 98.9194 80.8463 98.924 80.8786 98.9259C80.9047 98.9275 80.9526 98.924 80.977 98.9345C81.0286 98.9568 81.0824 98.9421 81.1361 98.9516C81.2607 98.9738 81.3814 98.975 81.5077 98.975" stroke="#0D162D" stroke-linecap="round"/>
<path d="M80.8845 98.6602C80.9659 98.658 81.0471 98.6541 81.129 98.6541C81.1716 98.6541 81.2068 98.6624 81.2479 98.6678C81.2995 98.6746 81.3514 98.6699 81.4029 98.6774C81.4258 98.6807 81.4487 98.689 81.4715 98.6942C81.4991 98.7005 81.5307 98.6903 81.5541 98.7096C81.5746 98.7265 81.5991 98.7189 81.6223 98.7295C81.6546 98.7441 81.6955 98.7628 81.73 98.7699C81.7526 98.7746 81.7673 98.7827 81.7886 98.7895C81.8117 98.7968 81.8338 98.7922 81.8568 98.7963C81.8846 98.8014 81.9075 98.8185 81.935 98.8207C81.9563 98.8224 81.9811 98.8531 81.9988 98.8632C82.0177 98.874 82.0504 98.87 82.0722 98.87C82.0993 98.87 82.1283 98.8798 82.1483 98.8961C82.1642 98.9092 82.1501 98.9473 82.15 98.9468C82.144 98.9258 82.1564 98.9088 82.125 98.9071C82.1007 98.9057 82.0883 98.9142 82.0663 98.9191C82.0368 98.9256 82.1117 98.9379 82.125 98.9379C82.1477 98.9379 82.1709 98.9441 82.1956 98.9441C82.2476 98.9441 82.2964 98.9256 82.3471 98.9256" stroke="#0D162D" stroke-linecap="round"/>
<path d="M75.2891 92.1406C75.3553 92.1608 75.4196 92.1828 75.4766 92.2235C75.4891 92.2325 75.5042 92.2363 75.5178 92.2431C75.5405 92.2544 75.5668 92.2571 75.5898 92.2687C75.6239 92.2857 75.6617 92.2916 75.6984 92.3038C75.7278 92.3136 75.7571 92.3227 75.7852 92.3359C75.8167 92.3509 75.8473 92.3692 75.8798 92.3828C75.9099 92.3954 75.9374 92.4093 75.9688 92.4171C75.9949 92.4236 76.0213 92.4342 76.0469 92.4434C76.1142 92.4674 76.1773 92.507 76.2441 92.5332C76.279 92.5468 76.3118 92.5602 76.3457 92.5764C76.3844 92.5949 76.4163 92.6252 76.4553 92.6424C76.4739 92.6505 76.4897 92.6609 76.5078 92.6699C76.5226 92.6773 76.5391 92.6922 76.5549 92.6953C76.5738 92.6991 76.5897 92.7099 76.6074 92.7168C76.6212 92.7222 76.6374 92.7256 76.6504 92.7326C76.6716 92.744 76.7033 92.7508 76.7266 92.7541C76.7475 92.7571 76.7676 92.7578 76.7891 92.7578" stroke="#1A2157" stroke-width="0.5" stroke-linecap="round"/>
<path d="M76.8359 92.5742C76.6902 92.5742 76.5295 92.5766 76.3993 92.5009C76.3575 92.4766 76.3182 92.4454 76.2715 92.4316C76.2405 92.4225 76.2088 92.4186 76.178 92.4099C76.1496 92.402 76.1205 92.3987 76.0922 92.3906C76.0755 92.3859 76.0563 92.3768 76.0391 92.375C76.0234 92.3733 76.0051 92.3642 75.99 92.3594C75.9462 92.3453 75.8997 92.3395 75.8559 92.3242C75.8383 92.3181 75.82 92.3173 75.8027 92.3105C75.7903 92.3057 75.779 92.2995 75.7658 92.2969C75.7422 92.2922 75.7197 92.2777 75.6957 92.2717C75.6522 92.2608 75.6082 92.2534 75.5655 92.2391C75.5083 92.2201 75.464 92.1875 75.4023 92.1875" stroke="#1A2157" stroke-width="0.5" stroke-linecap="round"/>
<path d="M83.832 99.3125C83.8048 99.3125 83.8129 99.335 83.7947 99.3446C83.7861 99.3492 83.7856 99.3607 83.7791 99.3672C83.7705 99.3758 83.7774 99.3782 83.7774 99.3887C83.7774 99.3977 83.7828 99.4008 83.785 99.4084C83.786 99.4119 83.7832 99.4187 83.7869 99.421C83.7898 99.4228 83.7955 99.424 83.7967 99.428C83.8005 99.4415 83.7584 99.4396 83.7869 99.4523C83.7946 99.4557 83.8175 99.4531 83.7938 99.4531C83.7835 99.4531 83.7739 99.457 83.7626 99.457C83.7542 99.457 83.744 99.4607 83.7366 99.464C83.7252 99.469 83.7095 99.4652 83.6975 99.4707C83.6766 99.4802 83.6533 99.4805 83.6307 99.4805C83.6033 99.4805 83.5775 99.4844 83.5499 99.4844C83.4979 99.4844 83.4475 99.4961 83.3967 99.4961C83.3471 99.4961 83.2972 99.5 83.247 99.5C83.2193 99.5 83.1917 99.5 83.1641 99.5C83.1383 99.5 83.1124 99.5078 83.0859 99.5078C83.0287 99.5078 82.9714 99.5078 82.9141 99.5078C82.8838 99.5078 82.8548 99.5039 82.8242 99.5039C82.791 99.5039 82.7569 99.5078 82.7244 99.5078C82.6561 99.5078 82.5867 99.5117 82.5178 99.5117C82.4383 99.5117 82.3588 99.5117 82.2793 99.5117C82.2382 99.5117 82.1971 99.5117 82.156 99.5117C82.1356 99.5117 82.1196 99.5039 82.0996 99.5039C82.0772 99.5039 82.0554 99.5006 82.0334 99.5C81.9759 99.4985 81.9182 99.5 81.8607 99.5C81.8162 99.5 81.7687 99.495 81.7246 99.5002C81.6696 99.5067 81.6133 99.5039 81.5577 99.5039C81.5299 99.5039 81.5022 99.5 81.4748 99.5C81.4559 99.5 81.5009 99.4909 81.5057 99.49C81.5966 99.4733 81.6911 99.4966 81.7813 99.4735C81.8128 99.4655 81.8471 99.4688 81.8794 99.4688C81.9206 99.4688 81.9618 99.4688 82.003 99.4688C82.0848 99.4688 82.168 99.4733 82.2494 99.4646C82.2858 99.4607 82.3201 99.4463 82.3557 99.4395C82.3596 99.4387 82.3824 99.4375 82.3668 99.4375C82.333 99.4375 82.2992 99.4375 82.2654 99.4375C82.1464 99.4375 82.0287 99.4253 81.91 99.4219C81.8093 99.419 81.7017 99.4071 81.6055 99.375" stroke="#0D162D" stroke-width="0.1" stroke-linecap="round"/>
<path d="M81.7188 99.4414C81.6595 99.4414 81.5979 99.4308 81.5399 99.4501C81.5111 99.4597 81.4799 99.4609 81.4492 99.4609C81.4115 99.4609 81.3781 99.4688 81.3398 99.4688C81.3021 99.4688 81.2643 99.4698 81.2266 99.4688C81.1826 99.4675 81.142 99.4531 81.0977 99.4531C81.0505 99.4531 81.0034 99.4541 80.9568 99.4494C80.9352 99.4473 80.9124 99.4492 80.8906 99.4492C80.8791 99.4492 80.8722 99.4466 80.8611 99.4431C80.8437 99.4377 80.8223 99.4421 80.8043 99.4412C80.762 99.4391 80.7197 99.4368 80.6775 99.4336C80.6494 99.4315 80.6231 99.4219 80.5938 99.4219C80.5663 99.4219 80.5397 99.418 80.5122 99.418C80.4882 99.418 80.4697 99.4102 80.4453 99.4102C80.3931 99.4102 80.3417 99.4062 80.2888 99.4062C80.2505 99.4062 80.2134 99.398 80.1758 99.3937C80.1261 99.388 80.0756 99.3906 80.0256 99.3906C79.9551 99.3906 79.8851 99.3886 79.8147 99.3867C79.7769 99.3857 79.74 99.375 79.7014 99.375C79.6655 99.375 79.6296 99.375 79.5938 99.375C79.5585 99.375 79.5274 99.3633 79.492 99.3633C79.4598 99.3633 79.4265 99.3586 79.3945 99.3557C79.3628 99.3528 79.3332 99.3438 79.2999 99.3438C79.2616 99.3438 79.2258 99.33 79.1875 99.3279C79.1668 99.3268 79.1468 99.3174 79.1259 99.3145C79.1099 99.3122 79.0942 99.313 79.0781 99.3125C79.0628 99.3121 79.0474 99.3086 79.0312 99.3086" stroke="#0D162D" stroke-width="0.1" stroke-linecap="round"/>
<path d="M76.5938 98.875C76.6243 98.9056 76.6555 98.9149 76.6975 98.9297C76.7066 98.9329 76.7286 98.9428 76.7305 98.9531C76.7333 98.9692 76.7513 98.9644 76.7587 98.9718C76.7643 98.9774 76.7811 98.9912 76.7891 98.9922C76.7956 98.993 76.8182 98.9971 76.8234 99.0009C76.8301 99.0058 76.8546 99.0076 76.8633 99.0078C76.8808 99.0083 76.8994 99.0117 76.9162 99.0117C76.9479 99.0117 76.9755 99.0216 77.0056 99.0271C77.0196 99.0297 77.0339 99.0366 77.0471 99.0388C77.0594 99.0409 77.0717 99.0508 77.0838 99.0508C77.12 99.0508 77.1578 99.0781 77.1953 99.0781C77.2113 99.0781 77.2239 99.0859 77.24 99.0859C77.2517 99.0859 77.2784 99.0903 77.2891 99.0946C77.3071 99.1018 77.3321 99.1016 77.3516 99.1016C77.371 99.1016 77.3903 99.1094 77.4102 99.1094C77.4451 99.1094 77.4781 99.112 77.5126 99.1133C77.5579 99.115 77.6036 99.1328 77.6484 99.1328C77.6911 99.1328 77.7382 99.1439 77.7812 99.1487C77.8247 99.1535 77.869 99.1643 77.9119 99.1721C77.9508 99.1792 77.9949 99.1755 78.0332 99.1855C78.0779 99.1973 78.1279 99.1952 78.1721 99.209C78.2046 99.2192 78.2457 99.2168 78.2795 99.2207C78.3259 99.2261 78.3711 99.2344 78.418 99.2344" stroke="#0D162D" stroke-width="0.1" stroke-linecap="round"/>
<path d="M78.3086 99.1797C78.3363 99.1797 78.3593 99.1955 78.3806 99.2129C78.4077 99.235 78.4415 99.2305 78.4744 99.2305C78.5055 99.2305 78.5411 99.2274 78.5703 99.2391C78.5832 99.2443 78.6034 99.2453 78.6172 99.2461C78.6338 99.247 78.6515 99.2536 78.6697 99.2539C78.6918 99.2543 78.7121 99.2617 78.7344 99.2617C78.7496 99.2617 78.7662 99.2598 78.7812 99.2619C78.8175 99.2671 78.8551 99.2694 78.8906 99.2793C78.9287 99.2899 78.9713 99.2919 79.0109 99.2977C79.0777 99.3076 79.1425 99.3164 79.2109 99.3164" stroke="#0D162D" stroke-width="0.1" stroke-linecap="round"/>
<path d="M81.5234 99.4727C81.519 99.4732 81.5086 99.4795 81.5039 99.4813C81.4918 99.4862 81.4862 99.4883 81.4727 99.4883C81.4502 99.4883 81.4278 99.4883 81.4054 99.4883C81.3823 99.4883 81.3582 99.4844 81.3342 99.4844C81.3237 99.4844 81.3151 99.4766 81.303 99.4766C81.2919 99.4766 81.2811 99.4727 81.2695 99.4727C81.2449 99.4727 81.2217 99.4713 81.1975 99.469C81.1871 99.468 81.1633 99.4737 81.1562 99.4648C81.1504 99.4575 81.1328 99.4609 81.1241 99.4609C81.0987 99.4609 81.0732 99.457 81.0486 99.457C81.036 99.457 80.9778 99.4635 80.9727 99.4531" stroke="#0D162D" stroke-width="0.1" stroke-linecap="round"/>
<path d="M76.4492 92.9766C76.4639 92.9766 76.4733 92.9811 76.4844 92.9905C76.4983 93.0023 76.5201 93.0058 76.5352 93.0165C76.5641 93.0372 76.6061 93.049 76.6389 93.0584C76.6437 93.0597 76.6493 93.0617 76.6521 93.0664C76.6559 93.0728 76.6637 93.0695 76.6701 93.0725C76.6867 93.0802 76.7127 93.1 76.7305 93.1016C76.7657 93.1046 76.7935 93.1438 76.8277 93.1487C76.8418 93.1507 76.8527 93.1638 76.8672 93.168C76.8836 93.1727 76.9048 93.1749 76.9197 93.1816C76.9414 93.1915 76.9654 93.206 76.99 93.2118C77.0576 93.2277 77.1177 93.2602 77.1875 93.283C77.2039 93.2883 77.2296 93.3037 77.2461 93.3047C77.2588 93.3054 77.2708 93.3073 77.2834 93.3095C77.2952 93.3115 77.3057 93.3198 77.3173 93.3203C77.3395 93.3213 77.3583 93.3348 77.3789 93.3359C77.4078 93.3375 77.4363 93.3416 77.4651 93.3435C77.4916 93.3453 77.5144 93.3516 77.5412 93.3516C77.5614 93.3516 77.6023 93.3501 77.6202 93.3611C77.6349 93.3701 77.6563 93.3689 77.674 93.372C77.7011 93.3766 77.7307 93.3836 77.7574 93.3908C77.8006 93.4026 77.8458 93.4111 77.8906 93.418C77.9048 93.4201 77.9164 93.4263 77.9297 93.4293C77.9446 93.4326 77.9609 93.4289 77.9761 93.4316C78.0088 93.4375 78.041 93.4422 78.0734 93.4484C78.103 93.454 78.1307 93.4574 78.1602 93.4618C78.1864 93.4657 78.2127 93.4756 78.2391 93.4805C78.2621 93.4847 78.2836 93.4904 78.3066 93.4941C78.4139 93.5114 78.5222 93.5255 78.6289 93.5469" stroke="#0D162D" stroke-width="0.1" stroke-linecap="round"/>
<path d="M76.4883 93.0898C76.5378 93.0898 76.5866 93.1098 76.6354 93.1168C76.6688 93.1215 76.7009 93.1311 76.7344 93.1348C76.7618 93.1378 76.7874 93.1479 76.8147 93.1484C76.8356 93.1488 76.8558 93.1641 76.875 93.1641C76.9035 93.1641 76.9279 93.1797 76.9553 93.1797C76.9747 93.1797 76.9871 93.1947 77.0048 93.1953C77.0181 93.1958 77.0311 93.2041 77.043 93.2092C77.057 93.2153 77.0781 93.2143 77.0935 93.219C77.144 93.2341 77.1878 93.2507 77.2344 93.2773" stroke="#0D162D" stroke-width="0.1" stroke-linecap="round"/>
<path d="M76.7188 93.1329C76.8068 93.1128 76.8642 93.1915 76.9492 93.1915" stroke="#0D162D" stroke-width="0.1" stroke-linecap="round"/>
<path d="M76.9688 93.1758C76.9527 93.1758 76.9443 93.1678 76.9297 93.1632C76.9211 93.1605 76.9128 93.1526 76.9045 93.1484C76.8923 93.1424 76.8793 93.1404 76.8672 93.135C76.8202 93.1138 76.7879 93.103 76.7344 93.0977" stroke="#0D162D" stroke-width="0.1" stroke-linecap="round"/>
<path d="M75.5898 92.4414V92.457" stroke="#1A2157" stroke-width="0.1" stroke-linecap="round"/>
<path d="M75.4961 92.457C75.521 92.457 75.5297 92.4718 75.5523 92.4768C75.5565 92.4777 75.5575 92.4841 75.5603 92.4865C75.5635 92.4894 75.5727 92.486 75.574 92.4905C75.5769 92.5006 75.5961 92.5074 75.6063 92.5078C75.6185 92.5083 75.6261 92.5189 75.6367 92.5195C75.6452 92.52 75.6616 92.5199 75.6682 92.5254C75.6838 92.5384 75.7105 92.5357 75.7313 92.5421C75.7762 92.5559 75.8062 92.5814 75.8459 92.6024C75.8657 92.6129 75.8884 92.6328 75.9119 92.6328C75.9197 92.6328 75.9285 92.642 75.9338 92.6465C75.9427 92.6539 75.956 92.6552 75.964 92.661C75.9713 92.6663 75.9837 92.6758 75.9922 92.6758C76.0052 92.6758 76.0205 92.6798 76.0312 92.6875C76.0401 92.6939 76.0573 92.6936 76.0681 92.6955C76.0825 92.6981 76.0914 92.707 76.1063 92.707C76.1173 92.707 76.1243 92.7141 76.1328 92.7209C76.1417 92.728 76.1608 92.7264 76.1719 92.7344C76.1783 92.739 76.183 92.738 76.1905 92.7383C76.197 92.7385 76.1994 92.7442 76.2053 92.7463C76.2151 92.7498 76.237 92.7527 76.2452 92.7587C76.281 92.7847 76.3338 92.8047 76.378 92.8194C76.3874 92.8226 76.3939 92.83 76.4041 92.8316C76.4185 92.8339 76.4316 92.8344 76.4453 92.8407C76.4686 92.8515 76.4947 92.8575 76.5174 92.8694C76.55 92.8864 76.5949 92.9023 76.6328 92.9023" stroke="#1A2157" stroke-width="0.1" stroke-linecap="round"/>
<path d="M75.4766 92.4141C75.4815 92.4202 75.4807 92.4258 75.49 92.4258C75.4953 92.4258 75.5044 92.4273 75.5078 92.4316C75.5112 92.4359 75.5127 92.4407 75.5187 92.4414C75.5264 92.4424 75.5244 92.4506 75.5291 92.4553C75.5444 92.4706 75.5639 92.4871 75.5859 92.4883C75.5911 92.4886 75.6105 92.4957 75.6131 92.5C75.6169 92.5063 75.6449 92.5138 75.6532 92.5187C75.6708 92.5289 75.6909 92.5335 75.7088 92.5432C75.7199 92.5492 75.7322 92.5518 75.7422 92.5603C75.7483 92.5655 75.7531 92.5653 75.76 92.5684C75.7672 92.5716 75.7745 92.5797 75.7812 92.5816C75.7996 92.5868 75.8156 92.5962 75.8342 92.6007C75.8439 92.603 75.8507 92.6106 75.8596 92.6128C75.8734 92.6163 75.8854 92.618 75.8984 92.625C75.9291 92.6415 75.965 92.6417 75.997 92.6541C76.02 92.663 76.0421 92.6731 76.0649 92.6821C76.0964 92.6944 76.1304 92.7004 76.1632 92.7109C76.1922 92.7203 76.2205 92.7312 76.2496 92.7405C76.2804 92.7503 76.3067 92.7695 76.3398 92.7695" stroke="#1A2157" stroke-width="0.1" stroke-linecap="round"/>
<path d="M76.3606 93.0364C76.3793 93.0364 76.403 93.0636 76.4178 93.0753C76.4566 93.1058 76.5201 93.1113 76.5667 93.1191C76.6245 93.1287 76.6722 93.1526 76.7304 93.1549C76.7436 93.1554 76.7598 93.1589 76.7734 93.1606C76.8133 93.1656 76.8506 93.1685 76.891 93.1706C76.9185 93.1721 76.9404 93.1851 76.9657 93.1935C76.977 93.1973 76.9876 93.2087 76.9972 93.211C77.0145 93.2151 77.0379 93.2207 77.0545 93.2219C77.0879 93.2242 77.1197 93.2425 77.1541 93.2425" stroke="#0D162D" stroke-width="0.1" stroke-linecap="round"/>
<path d="M76.4534 92.9642C76.4725 92.9642 76.4846 92.9625 76.4949 92.9796C76.4996 92.9875 76.5538 93.0029 76.5639 93.0048C76.5931 93.0104 76.6133 93.0235 76.6434 93.0263C76.6694 93.0286 76.6895 93.0426 76.7133 93.0469C76.7491 93.0534 76.7838 93.0814 76.8129 93.1004C76.8512 93.1254 76.9054 93.1284 76.948 93.1474C76.9659 93.1553 76.9888 93.1489 77.0075 93.1574C77.0258 93.1657 77.0498 93.167 77.0694 93.1705C77.0836 93.1731 77.0985 93.1771 77.1103 93.1854C77.1234 93.1947 77.1414 93.1895 77.1564 93.1937C77.173 93.1984 77.183 93.2098 77.2005 93.2118C77.2132 93.2132 77.2278 93.221 77.2391 93.2269C77.2532 93.2343 77.2724 93.235 77.2881 93.2372C77.304 93.2395 77.3135 93.249 77.327 93.2521C77.3457 93.2565 77.3744 93.263 77.3934 93.263C77.4028 93.263 77.4029 93.2733 77.414 93.2733C77.4228 93.2733 77.4321 93.2724 77.4409 93.2736C77.4807 93.2789 77.5218 93.2919 77.5608 93.3016C77.6168 93.3156 77.6745 93.3254 77.7312 93.3391C77.7496 93.3436 77.7645 93.3548 77.7838 93.3557C77.805 93.3568 77.8266 93.3605 77.8474 93.3649C77.887 93.3732 77.9265 93.3752 77.967 93.3826C78.0701 93.4016 78.1749 93.4062 78.2773 93.4282C78.3187 93.437 78.3596 93.4392 78.4016 93.4465C78.4337 93.4521 78.4613 93.4574 78.494 93.4591C78.5286 93.4609 78.5601 93.4761 78.5942 93.4788C78.6234 93.4811 78.6533 93.4839 78.6826 93.4845C78.7183 93.4853 78.7496 93.4969 78.7845 93.5012C78.8514 93.5092 78.9212 93.5206 78.9884 93.5206C79.153 93.5206 79.3144 93.5489 79.475 93.5813C79.575 93.6015 79.6797 93.601 79.7807 93.6156C79.8821 93.6304 79.9873 93.6437 80.0898 93.6443C80.2262 93.645 80.3627 93.6653 80.4974 93.6843C80.5647 93.6939 80.6335 93.7019 80.7012 93.7072C80.7362 93.71 80.7655 93.711 80.7968 93.7267" stroke="#0D162D" stroke-width="0.1" stroke-linecap="round"/>
<path d="M80.1631 93.6753C80.2029 93.6742 80.2453 93.6657 80.2845 93.6587C80.3248 93.6516 80.3671 93.6547 80.4081 93.6547C80.4646 93.6547 80.5236 93.6571 80.5776 93.6731C80.6029 93.6806 80.6337 93.674 80.66 93.6765C80.69 93.6793 80.721 93.6785 80.7505 93.6845C80.8015 93.695 80.8496 93.696 80.9027 93.696C80.9572 93.696 81.0104 93.704 81.0648 93.7063C81.1008 93.7078 81.135 93.7161 81.1718 93.7166C81.2111 93.7171 81.2499 93.7263 81.2892 93.7269C81.3402 93.7276 81.391 93.7423 81.4432 93.7423C81.721 93.7423 82.0035 93.7644 82.2807 93.7332C82.4311 93.7162 82.5842 93.7341 82.7341 93.7463C82.9004 93.7598 83.0666 93.7681 83.2339 93.7681" stroke="#0D162D" stroke-width="0.1" stroke-linecap="round"/>
<path d="M76.1023 92.8621C76.1232 92.8621 76.1304 92.8768 76.1484 92.8863C76.1777 92.9018 76.2069 92.9028 76.2381 92.9106C76.2542 92.9146 76.2679 92.9213 76.2842 92.9242C76.2979 92.9266 76.3117 92.9273 76.325 92.931C76.349 92.9376 76.3778 92.9405 76.3995 92.9535C76.409 92.9593 76.4232 92.9596 76.4341 92.9615C76.4517 92.9646 76.4674 92.9718 76.4846 92.9766C76.4993 92.9806 76.5127 92.9902 76.5278 92.9926C76.543 92.995 76.5584 92.9946 76.5739 92.9974C76.5973 93.0017 76.6192 93.0152 76.6437 93.0193C76.6498 93.0203 76.6523 93.027 76.6607 93.0282C76.6707 93.0297 76.6812 93.0355 76.6896 93.0408C76.6997 93.0472 76.7098 93.0442 76.7209 93.0464C76.736 93.0494 76.7471 93.0597 76.7619 93.0627C76.7801 93.0663 76.7962 93.074 76.814 93.0784C76.833 93.0831 76.85 93.0816 76.8684 93.0901C76.8918 93.1009 76.9183 93.0982 76.9428 93.1068C76.9631 93.114 76.9867 93.1178 77.0062 93.126C77.0223 93.1328 77.0373 93.1315 77.0542 93.1352C77.075 93.1398 77.0946 93.1481 77.1156 93.1524C77.1518 93.16 77.1845 93.1682 77.2182 93.1832C77.2285 93.1879 77.2441 93.1875 77.2555 93.1895C77.2718 93.1925 77.2877 93.1998 77.3033 93.2022C77.3356 93.2071 77.366 93.2188 77.3982 93.2235C77.4285 93.228 77.458 93.239 77.4884 93.2453C77.502 93.2482 77.5138 93.255 77.5277 93.255C77.5412 93.255 77.5574 93.257 77.5699 93.2621C77.5999 93.2744 77.6315 93.2716 77.6621 93.2832C77.702 93.2983 77.7497 93.3055 77.7919 93.3077C77.8987 93.3133 78.0012 93.3536 78.107 93.3642C78.1562 93.3691 78.2066 93.3821 78.255 93.3928C78.2757 93.3974 78.2993 93.3973 78.3205 93.3991C78.3488 93.4016 78.3744 93.4122 78.4032 93.4122C78.4567 93.4122 78.5122 93.425 78.5652 93.4321C78.6263 93.4403 78.6832 93.4472 78.745 93.4472C78.8058 93.4472 78.8612 93.4582 78.9206 93.4671C78.9497 93.4714 78.9776 93.4801 79.007 93.4831C79.0362 93.486 79.0646 93.4981 79.0933 93.4996C79.1608 93.5031 79.2248 93.5278 79.2918 93.534C79.3425 93.5387 79.3919 93.5492 79.4426 93.5554C79.5381 93.567 79.6346 93.5694 79.7308 93.5694" stroke="#0D162D" stroke-width="0.1" stroke-linecap="round"/>
<path d="M79.6172 93.5518C79.6706 93.5607 79.7274 93.5692 79.7824 93.5692C79.7946 93.5692 79.7961 93.578 79.8069 93.578C79.8201 93.578 79.8332 93.578 79.8464 93.578C79.863 93.578 79.8801 93.5767 79.8966 93.5782C79.9183 93.5802 79.9383 93.592 79.9597 93.5949C80.0034 93.601 80.0488 93.5947 80.0922 93.6061C80.1368 93.6178 80.1832 93.615 80.2285 93.6284C80.2447 93.6332 80.2642 93.63 80.2809 93.6304C80.3069 93.6308 80.3328 93.6344 80.359 93.6347C80.4305 93.6357 80.5023 93.6433 80.5734 93.6488C80.604 93.6511 80.6346 93.6544 80.6651 93.657C80.7009 93.6601 80.7381 93.663 80.7738 93.6675C80.7998 93.6707 80.825 93.679 80.8507 93.6823C80.8819 93.6863 80.9137 93.6841 80.9451 93.6898C81.0257 93.7043 81.1078 93.7092 81.1889 93.7201C81.2295 93.7256 81.2659 93.7336 81.3073 93.7354C81.3405 93.7368 81.3765 93.7367 81.4094 93.7417C81.4759 93.7518 81.5453 93.7395 81.6117 93.7395C81.6667 93.7395 81.7217 93.7389 81.7766 93.7395C81.8053 93.7398 81.8304 93.7521 81.8591 93.7526C81.8863 93.7531 81.9121 93.7569 81.9358 93.7701" stroke="#0D162D" stroke-width="0.1" stroke-linecap="round"/>
<defs>
<filter id="filter0_d_278_134" x="61.0125" y="27.824" width="41.032" height="71.752" filterUnits="userSpaceOnUse" color-interpolation-filters="sRGB">
<feFlood flood-opacity="0" result="BackgroundImageFix"/>
<feColorMatrix in="SourceAlpha" type="matrix" values="0 0 0 0 0 0 0 0 0 0 0 0 0 0 0 0 0 0 127 0" result="hardAlpha"/>
<feOffset dx="-1" dy="-1"/>
<feComposite in2="hardAlpha" operator="out"/>
<feColorMatrix type="matrix" values="0 0 0 0 0.101961 0 0 0 0 0.129412 0 0 0 0 0.341176 0 0 0 1 0"/>
<feBlend mode="normal" in2="BackgroundImageFix" result="effect1_dropShadow_278_134"/>
<feBlend mode="normal" in="SourceGraphic" in2="effect1_dropShadow_278_134" result="shape"/>
</filter>
<filter id="filter1_d_278_134" x="73.7373" y="76.6321" width="40.936" height="72.04" filterUnits="userSpaceOnUse" color-interpolation-filters="sRGB">
<feFlood flood-opacity="0" result="BackgroundImageFix"/>
<feColorMatrix in="SourceAlpha" type="matrix" values="0 0 0 0 0 0 0 0 0 0 0 0 0 0 0 0 0 0 127 0" result="hardAlpha"/>
<feOffset dx="-1" dy="-1"/>
<feComposite in2="hardAlpha" operator="out"/>
<feColorMatrix type="matrix" values="0 0 0 0 0.0509804 0 0 0 0 0.0862745 0 0 0 0 0.176471 0 0 0 1 0"/>
<feBlend mode="normal" in2="BackgroundImageFix" result="effect1_dropShadow_278_134"/>
<feBlend mode="normal" in="SourceGraphic" in2="effect1_dropShadow_278_134" result="shape"/>
</filter>
</defs>
</svg>
